<mxfile type="github" version="12.6.7" host="www.draw.io" modified="2020-02-10T19:15:05.182Z" agent="Mozilla/5.0 (Windows NT 10.0; Win64; x64) AppleWebKit/537.36 (KHTML, like Gecko) Chrome/64.0.3282.140 Safari/537.36 Edge/18.17763" etag="VeoT0JhUiEjcsWmdoZRD">
  <diagram id="4_loe-rSwXjhO66IxARF" name="master_schema">
    <mxGraphModel grid="1" dx="1422" dy="792" gridSize="10" guides="1" tooltips="1" connect="1" arrows="1" fold="1" page="1" pageScale="1" pageWidth="1100" pageHeight="850" math="0" shadow="0">
      <root>
        <mxCell id="0"/>
        <mxCell id="2Q-l-OiIUTWmhhpuc4lq-6" value="Regions" parent="0" style="locked=1;"/>
        <mxCell id="2Q-l-OiIUTWmhhpuc4lq-7" value="" parent="2Q-l-OiIUTWmhhpuc4lq-6" style="rounded=0;whiteSpace=wrap;html=1;strokeWidth=2;fillColor=#f5f5f5;fontSize=14;align=left;strokeColor=#666666;fontColor=#333333;" vertex="1">
          <mxGeometry as="geometry" x="40" y="100" width="260" height="560"/>
        </mxCell>
        <mxCell id="2Q-l-OiIUTWmhhpuc4lq-8" value="" parent="2Q-l-OiIUTWmhhpuc4lq-6" style="rounded=0;whiteSpace=wrap;html=1;strokeWidth=2;fillColor=#f5f5f5;fontSize=14;align=left;strokeColor=#666666;fontColor=#333333;" vertex="1">
          <mxGeometry as="geometry" x="300" y="100" width="500" height="560"/>
        </mxCell>
        <mxCell id="2Q-l-OiIUTWmhhpuc4lq-9" value="" parent="2Q-l-OiIUTWmhhpuc4lq-6" style="rounded=0;whiteSpace=wrap;html=1;strokeWidth=2;fillColor=#f5f5f5;fontSize=14;align=left;strokeColor=#666666;fontColor=#333333;" vertex="1">
          <mxGeometry as="geometry" x="800" y="100" width="260" height="560"/>
        </mxCell>
        <mxCell id="1" value="Frame" parent="0" style=""/>
        <mxCell id="EVoNSvgZZDJ8XkAlmknF-9" value="" parent="1" style="rounded=0;whiteSpace=wrap;html=1;strokeWidth=4;fillColor=none;" vertex="1">
          <mxGeometry as="geometry" x="40" y="40" width="1020" height="780"/>
        </mxCell>
        <mxCell id="EVoNSvgZZDJ8XkAlmknF-19" value="" parent="1" style="rounded=0;whiteSpace=wrap;html=1;strokeWidth=4;fillColor=none;" vertex="1">
          <mxGeometry as="geometry" x="40" y="40" width="1020" height="60"/>
        </mxCell>
        <mxCell id="EVoNSvgZZDJ8XkAlmknF-20" value="&lt;div align=&quot;left&quot; style=&quot;font-size: 20px&quot;&gt;Data Flow Diagram &lt;font color=&quot;#b3b3b3&quot;&gt;/ Master Schema / V1&lt;/font&gt;&lt;/div&gt;" parent="1" style="rounded=0;whiteSpace=wrap;html=1;strokeWidth=4;fillColor=none;align=left;fontSize=20;fontStyle=1;strokeColor=none;" vertex="1">
          <mxGeometry as="geometry" x="50" y="50" width="510" height="40"/>
        </mxCell>
        <mxCell id="EVoNSvgZZDJ8XkAlmknF-21" value="&lt;div align=&quot;center&quot; style=&quot;font-size: 14px&quot;&gt;PLACEHOLDER FOR TEXT GOES HERE&lt;/div&gt;" parent="1" style="rounded=0;whiteSpace=wrap;html=1;strokeWidth=4;fillColor=none;align=center;fontSize=20;fontStyle=1;strokeColor=none;" vertex="1">
          <mxGeometry as="geometry" x="650" y="50" width="390" height="40"/>
        </mxCell>
        <mxCell id="EVoNSvgZZDJ8XkAlmknF-33" value="" parent="1" style="rounded=0;whiteSpace=wrap;html=1;strokeWidth=4;fillColor=none;" vertex="1">
          <mxGeometry as="geometry" x="40" y="660" width="1020" height="160"/>
        </mxCell>
        <mxCell id="2Q-l-OiIUTWmhhpuc4lq-1" value="&lt;div align=&quot;left&quot; style=&quot;font-size: 12px&quot;&gt;&lt;font style=&quot;font-size: 12px&quot;&gt;Transport Types&lt;/font&gt;&lt;/div&gt;&lt;div align=&quot;left&quot; style=&quot;font-size: 12px&quot;&gt;&lt;font style=&quot;font-size: 12px&quot;&gt;AIM&lt;/font&gt;&lt;/div&gt;&lt;div align=&quot;left&quot; style=&quot;font-size: 12px&quot;&gt;&lt;font style=&quot;font-size: 12px&quot;&gt;NextGen&lt;/font&gt;&lt;/div&gt;&lt;div align=&quot;left&quot; style=&quot;font-size: 12px&quot;&gt;&lt;font style=&quot;font-size: 12px&quot;&gt;PHINMS&lt;/font&gt;&lt;/div&gt;&lt;div align=&quot;left&quot; style=&quot;font-size: 12px&quot;&gt;&lt;font style=&quot;font-size: 12px&quot;&gt;Electronically via sFTP or web portal&lt;/font&gt;&lt;/div&gt;&lt;div align=&quot;left&quot; style=&quot;font-size: 12px&quot;&gt;&lt;font style=&quot;font-size: 12px&quot;&gt;Electronically via fax or email&lt;/font&gt;&lt;/div&gt;&lt;div align=&quot;left&quot; style=&quot;font-size: 12px&quot;&gt;&lt;font style=&quot;font-size: 12px&quot;&gt;Physical mail or delivery&lt;/font&gt;&lt;/div&gt;" parent="1" style="rounded=0;whiteSpace=wrap;html=1;strokeWidth=4;fillColor=none;align=left;fontSize=20;fontStyle=0;strokeColor=none;" vertex="1">
          <mxGeometry as="geometry" x="60" y="680" width="220" height="130"/>
        </mxCell>
        <mxCell id="2Q-l-OiIUTWmhhpuc4lq-10" value="External Sources" parent="1" style="rounded=0;whiteSpace=wrap;html=1;strokeWidth=4;fillColor=none;align=center;fontSize=20;fontStyle=1;strokeColor=none;" vertex="1">
          <mxGeometry as="geometry" x="40" y="100" width="260" height="40"/>
        </mxCell>
        <mxCell id="2Q-l-OiIUTWmhhpuc4lq-11" value="Central Registry / State Department of Health" parent="1" style="rounded=0;whiteSpace=wrap;html=1;strokeWidth=4;fillColor=none;align=center;fontSize=20;fontStyle=1;strokeColor=none;" vertex="1">
          <mxGeometry as="geometry" x="300" y="100" width="500" height="40"/>
        </mxCell>
        <mxCell id="2Q-l-OiIUTWmhhpuc4lq-12" value="SEER*DMS" parent="1" style="rounded=0;whiteSpace=wrap;html=1;strokeWidth=4;fillColor=none;align=center;fontSize=20;fontStyle=1;strokeColor=none;" vertex="1">
          <mxGeometry as="geometry" x="800" y="100" width="260" height="40"/>
        </mxCell>
        <mxCell id="2Q-l-OiIUTWmhhpuc4lq-13" value="&lt;div style=&quot;font-size: 12px&quot;&gt;&lt;font color=&quot;#808080&quot;&gt;February 10, 2020 / Draft Design / Generic Template / Glenn Abastillas&lt;/font&gt;&lt;/div&gt;" parent="1" style="rounded=0;whiteSpace=wrap;html=1;strokeWidth=4;fillColor=none;align=left;fontSize=12;fontStyle=0;strokeColor=none;" vertex="1">
          <mxGeometry as="geometry" x="40" y="20" width="390" height="20"/>
        </mxCell>
        <mxCell id="EVoNSvgZZDJ8XkAlmknF-10" value="Nodes" parent="0" style="locked=1;"/>
        <mxCell id="EVoNSvgZZDJ8XkAlmknF-11" value="A" parent="EVoNSvgZZDJ8XkAlmknF-10" style="ellipse;whiteSpace=wrap;html=1;strokeWidth=2;" vertex="1">
          <mxGeometry as="geometry" x="140" y="200" width="60" height="60"/>
        </mxCell>
        <mxCell id="EVoNSvgZZDJ8XkAlmknF-12" value="F" parent="EVoNSvgZZDJ8XkAlmknF-10" style="ellipse;whiteSpace=wrap;html=1;strokeWidth=2;" vertex="1">
          <mxGeometry as="geometry" x="520" y="200" width="60" height="60"/>
        </mxCell>
        <mxCell id="EVoNSvgZZDJ8XkAlmknF-13" value="H" parent="EVoNSvgZZDJ8XkAlmknF-10" style="ellipse;whiteSpace=wrap;html=1;strokeWidth=2;" vertex="1">
          <mxGeometry as="geometry" x="520" y="332" width="60" height="60"/>
        </mxCell>
        <mxCell id="EVoNSvgZZDJ8XkAlmknF-14" value="K" parent="EVoNSvgZZDJ8XkAlmknF-10" style="ellipse;whiteSpace=wrap;html=1;strokeWidth=2;" vertex="1">
          <mxGeometry as="geometry" x="520" y="530" width="60" height="60"/>
        </mxCell>
        <mxCell id="EVoNSvgZZDJ8XkAlmknF-15" value="G" parent="EVoNSvgZZDJ8XkAlmknF-10" style="ellipse;whiteSpace=wrap;html=1;strokeWidth=2;" vertex="1">
          <mxGeometry as="geometry" x="520" y="266" width="60" height="60"/>
        </mxCell>
        <mxCell id="EVoNSvgZZDJ8XkAlmknF-16" value="J" parent="EVoNSvgZZDJ8XkAlmknF-10" style="ellipse;whiteSpace=wrap;html=1;strokeWidth=2;" vertex="1">
          <mxGeometry as="geometry" x="520" y="464" width="60" height="60"/>
        </mxCell>
        <mxCell id="EVoNSvgZZDJ8XkAlmknF-17" value="I" parent="EVoNSvgZZDJ8XkAlmknF-10" style="ellipse;whiteSpace=wrap;html=1;strokeWidth=2;" vertex="1">
          <mxGeometry as="geometry" x="520" y="398" width="60" height="60"/>
        </mxCell>
        <mxCell id="EVoNSvgZZDJ8XkAlmknF-18" value="L" parent="EVoNSvgZZDJ8XkAlmknF-10" style="ellipse;whiteSpace=wrap;html=1;strokeWidth=2;" vertex="1">
          <mxGeometry as="geometry" x="900" y="200" width="60" height="60"/>
        </mxCell>
        <mxCell id="EVoNSvgZZDJ8XkAlmknF-22" value="B" parent="EVoNSvgZZDJ8XkAlmknF-10" style="ellipse;whiteSpace=wrap;html=1;strokeWidth=2;" vertex="1">
          <mxGeometry as="geometry" x="140" y="266" width="60" height="60"/>
        </mxCell>
        <mxCell id="EVoNSvgZZDJ8XkAlmknF-23" value="C" parent="EVoNSvgZZDJ8XkAlmknF-10" style="ellipse;whiteSpace=wrap;html=1;strokeWidth=2;" vertex="1">
          <mxGeometry as="geometry" x="140" y="332" width="60" height="60"/>
        </mxCell>
        <mxCell id="EVoNSvgZZDJ8XkAlmknF-24" value="D" parent="EVoNSvgZZDJ8XkAlmknF-10" style="ellipse;whiteSpace=wrap;html=1;strokeWidth=2;" vertex="1">
          <mxGeometry as="geometry" x="140" y="398" width="60" height="60"/>
        </mxCell>
        <mxCell id="EVoNSvgZZDJ8XkAlmknF-25" value="E" parent="EVoNSvgZZDJ8XkAlmknF-10" style="ellipse;whiteSpace=wrap;html=1;strokeWidth=2;" vertex="1">
          <mxGeometry as="geometry" x="140" y="464" width="60" height="60"/>
        </mxCell>
        <mxCell id="2Q-l-OiIUTWmhhpuc4lq-5" value="F" parent="EVoNSvgZZDJ8XkAlmknF-10" style="ellipse;whiteSpace=wrap;html=1;strokeWidth=2;" vertex="1">
          <mxGeometry as="geometry" x="140" y="530" width="60" height="60"/>
        </mxCell>
      </root>
    </mxGraphModel>
  </diagram>
</mxfile>
